<?xml version="1.0" encoding="UTF-8"?>
<svg width="122px" height="63px" viewBox="0 0 122 63" version="1.1" xmlns="http://www.w3.org/2000/svg" xmlns:xlink="http://www.w3.org/1999/xlink">
    <!-- Generator: Sketch 51.3 (57544) - http://www.bohemiancoding.com/sketch -->
    <title>Untitled 3</title>
    <desc>Created with Sketch.</desc>
    <defs></defs>
    <g id="Page-1" stroke="none" stroke-width="1" fill="none" fill-rule="evenodd">
        <g id="al_logo" fill-rule="nonzero">
            <polygon id="Path-2" fill="#000000" points="83 0 59.7776754 60 41.5 60 60.0114864 16.3636364 21.8223587 60 0 60 54.5558967 1.04083409e-16"></polygon>
            <polygon id="Path" fill="#020202" points="85.5384035 0 102.893871 0 85.3622614 46.2376019 110 46.2376019 103.780275 60 63 60"></polygon>
        </g>
        <g id="®" transform="translate(111.000000, 53.000000)" fill="#000000">
            <path d="M10.098,5.30909091 C10.098,6.58909731 9.64333788,7.67999549 8.734,8.58181818 C7.82466212,9.48364087 6.72467312,9.93454545 5.434,9.93454545 C4.14332688,9.93454545 3.04333788,9.48364087 2.134,8.58181818 C1.22466212,7.67999549 0.77,6.58909731 0.77,5.30909091 C0.77,4.02908451 1.22466212,2.93818633 2.134,2.03636364 C3.04333788,1.13454095 4.14332688,0.683636364 5.434,0.683636364 C6.73933986,0.683636364 7.84299549,1.13090462 8.745,2.02545455 C9.64700451,2.92000447 10.098,4.01453898 10.098,5.30909091 Z M8.272,8.14545455 C9.06400396,7.35999607 9.46,6.41455098 9.46,5.30909091 C9.46,4.20363084 9.06767059,3.26182207 8.283,2.48363636 C7.49832941,1.70545065 6.54867224,1.31636364 5.434,1.31636364 C4.30466102,1.31636364 3.34767059,1.70545065 2.563,2.48363636 C1.77832941,3.26182207 1.386,4.20363084 1.386,5.30909091 C1.386,6.41455098 1.78199604,7.35999607 2.574,8.14545455 C3.36600396,8.93091302 4.31932776,9.32363636 5.434,9.32363636 C6.54867224,9.32363636 7.49466278,8.93091302 8.272,8.14545455 Z M7.59,7.97090909 L6.71,7.97090909 L5.324,5.87636364 L4.356,5.87636364 L4.356,7.97090909 L3.652,7.97090909 L3.652,2.66909091 L5.83,2.66909091 C6.29933568,2.66909091 6.69899835,2.81818033 7.029,3.11636364 C7.35900165,3.41454695 7.524,3.80363396 7.524,4.28363636 C7.524,4.79272982 7.35900165,5.18181684 7.029,5.45090909 C6.69899835,5.72000135 6.40933458,5.85454545 6.16,5.85454545 L7.59,7.97090909 Z M6.798,4.28363636 C6.798,4.00727135 6.69900099,3.77091007 6.501,3.57454545 C6.30299901,3.37818084 6.07933458,3.28 5.83,3.28 L4.356,3.28 L4.356,5.24363636 L5.83,5.24363636 C6.06466784,5.24363636 6.28466564,5.14909185 6.49,4.96 C6.69533436,4.77090815 6.798,4.54545585 6.798,4.28363636 Z"></path>
        </g>
    </g>
</svg>